# Blender v3.5.0 OBJ File: 'Boss_body.blend'
# www.blender.org
mtllib Boss_body.mtl
o Cube
v 1.272704 3.468228 -2.073421
v 1.272704 1.251359 -1.339399
v 1.272704 4.202250 0.143448
v 1.272704 1.985381 0.877470
v -1.274482 3.468228 -2.073421
v -1.274482 1.251359 -1.339399
v -1.274482 4.202250 0.143448
v -1.274482 1.985381 0.877470
vt 0.875000 0.500000
vt 0.625000 0.750000
vt 0.625000 0.500000
vt 0.375000 1.000000
vt 0.375000 0.750000
vt 0.625000 0.000000
vt 0.375000 0.250000
vt 0.375000 0.000000
vt 0.375000 0.500000
vt 0.125000 0.750000
vt 0.125000 0.500000
vt 0.625000 0.250000
vt 0.875000 0.750000
vt 0.625000 1.000000
vn 0.0000 0.9493 -0.3143
vn 0.0000 0.3143 0.9493
vn -1.0000 0.0000 0.0000
vn 0.0000 -0.9493 0.3143
vn 1.0000 0.0000 0.0000
vn 0.0000 -0.3143 -0.9493
usemtl Material
s off
f 5/1/1 3/2/1 1/3/1
f 3/2/2 8/4/2 4/5/2
f 7/6/3 6/7/3 8/8/3
f 2/9/4 8/10/4 6/11/4
f 1/3/5 4/5/5 2/9/5
f 5/12/6 2/9/6 6/7/6
f 5/1/1 7/13/1 3/2/1
f 3/2/2 7/14/2 8/4/2
f 7/6/3 5/12/3 6/7/3
f 2/9/4 4/5/4 8/10/4
f 1/3/5 3/2/5 4/5/5
f 5/12/6 1/3/6 2/9/6
o 立方体
v -1.268995 -0.403445 1.693424
v -1.268995 1.813424 0.959402
v -1.268995 -1.137467 -0.523445
v -1.268995 1.079402 -1.257467
v 1.278191 -0.403445 1.693424
v 1.278191 1.813424 0.959402
v 1.278191 -1.137467 -0.523445
v 1.278191 1.079402 -1.257467
vt 0.625000 0.000000
vt 0.375000 0.250000
vt 0.375000 0.000000
vt 0.625000 0.250000
vt 0.375000 0.500000
vt 0.625000 0.500000
vt 0.375000 0.750000
vt 0.625000 0.750000
vt 0.375000 1.000000
vt 0.125000 0.750000
vt 0.125000 0.500000
vt 0.875000 0.500000
vt 0.625000 1.000000
vt 0.875000 0.750000
vn -1.0000 0.0000 0.0000
vn 0.0000 -0.3143 -0.9493
vn 1.0000 0.0000 0.0000
vn 0.0000 0.3143 0.9493
vn 0.0000 -0.9493 0.3143
vn 0.0000 0.9493 -0.3143
usemtl None
s off
f 10/15/7 11/16/7 9/17/7
f 12/18/8 15/19/8 11/16/8
f 16/20/9 13/21/9 15/19/9
f 14/22/10 9/23/10 13/21/10
f 15/19/11 9/24/11 11/25/11
f 12/26/12 14/22/12 16/20/12
f 10/15/7 12/18/7 11/16/7
f 12/18/8 16/20/8 15/19/8
f 16/20/9 14/22/9 13/21/9
f 14/22/10 10/27/10 9/23/10
f 15/19/11 13/21/11 9/24/11
f 12/26/12 10/28/12 14/22/12
o 立方体.001
v 1.392627 -0.406491 1.669436
v 1.392627 1.810378 0.935415
v 1.392627 -1.140513 -0.547433
v 1.392627 1.076356 -1.281455
v 3.939813 -0.406491 1.669436
v 3.939813 1.810378 0.935415
v 3.939813 -1.140513 -0.547433
v 3.939813 1.076356 -1.281455
vt 0.625000 0.000000
vt 0.375000 0.250000
vt 0.375000 0.000000
vt 0.625000 0.250000
vt 0.375000 0.500000
vt 0.625000 0.500000
vt 0.375000 0.750000
vt 0.625000 0.750000
vt 0.375000 1.000000
vt 0.125000 0.750000
vt 0.125000 0.500000
vt 0.875000 0.500000
vt 0.625000 1.000000
vt 0.875000 0.750000
vn -1.0000 0.0000 0.0000
vn 0.0000 -0.3143 -0.9493
vn 1.0000 0.0000 0.0000
vn 0.0000 0.3143 0.9493
vn 0.0000 -0.9493 0.3143
vn 0.0000 0.9493 -0.3143
usemtl None
s off
f 18/29/13 19/30/13 17/31/13
f 20/32/14 23/33/14 19/30/14
f 24/34/15 21/35/15 23/33/15
f 22/36/16 17/37/16 21/35/16
f 23/33/17 17/38/17 19/39/17
f 20/40/18 22/36/18 24/34/18
f 18/29/13 20/32/13 19/30/13
f 20/32/14 24/34/14 23/33/14
f 24/34/15 22/36/15 21/35/15
f 22/36/16 18/41/16 17/37/16
f 23/33/17 21/35/17 17/38/17
f 20/40/18 18/42/18 22/36/18
o 立方体.002
v -3.926386 -0.406363 1.682759
v -3.926386 1.810506 0.948737
v -3.926386 -1.140385 -0.534110
v -3.926386 1.076484 -1.268132
v -1.379200 -0.406363 1.682759
v -1.379200 1.810506 0.948737
v -1.379200 -1.140385 -0.534110
v -1.379200 1.076484 -1.268132
vt 0.625000 0.000000
vt 0.375000 0.250000
vt 0.375000 0.000000
vt 0.625000 0.250000
vt 0.375000 0.500000
vt 0.625000 0.500000
vt 0.375000 0.750000
vt 0.625000 0.750000
vt 0.375000 1.000000
vt 0.125000 0.750000
vt 0.125000 0.500000
vt 0.875000 0.500000
vt 0.625000 1.000000
vt 0.875000 0.750000
vn -1.0000 0.0000 0.0000
vn 0.0000 -0.3143 -0.9493
vn 1.0000 0.0000 0.0000
vn 0.0000 0.3143 0.9493
vn 0.0000 -0.9493 0.3143
vn 0.0000 0.9493 -0.3143
usemtl None
s off
f 26/43/19 27/44/19 25/45/19
f 28/46/20 31/47/20 27/44/20
f 32/48/21 29/49/21 31/47/21
f 30/50/22 25/51/22 29/49/22
f 31/47/23 25/52/23 27/53/23
f 28/54/24 30/50/24 32/48/24
f 26/43/19 28/46/19 27/44/19
f 28/46/20 32/48/20 31/47/20
f 32/48/21 30/50/21 29/49/21
f 30/50/22 26/55/22 25/51/22
f 31/47/23 29/49/23 25/52/23
f 28/54/24 26/56/24 30/50/24
o 立方体.003
v -1.274482 -2.459948 1.347055
v -1.274482 -0.804370 2.469133
v -1.274482 -1.337870 -0.308524
v -1.274482 0.317709 0.813555
v 1.272704 -2.459948 1.347055
v 1.272704 -0.804370 2.469133
v 1.272704 -1.337870 -0.308524
v 1.272704 0.317709 0.813555
vt 0.625000 0.000000
vt 0.375000 0.250000
vt 0.375000 0.000000
vt 0.625000 0.250000
vt 0.375000 0.500000
vt 0.625000 0.500000
vt 0.375000 0.750000
vt 0.625000 0.750000
vt 0.375000 1.000000
vt 0.125000 0.750000
vt 0.125000 0.500000
vt 0.875000 0.500000
vt 0.625000 1.000000
vt 0.875000 0.750000
vn -1.0000 -0.0000 0.0000
vn 0.0000 0.5610 -0.8278
vn 1.0000 0.0000 0.0000
vn 0.0000 -0.5610 0.8278
vn 0.0000 -0.8278 -0.5610
vn 0.0000 0.8278 0.5610
usemtl None
s off
f 34/57/25 35/58/25 33/59/25
f 36/60/26 39/61/26 35/58/26
f 40/62/27 37/63/27 39/61/27
f 38/64/28 33/65/28 37/63/28
f 39/61/29 33/66/29 35/67/29
f 36/68/30 38/64/30 40/62/30
f 34/57/25 36/60/25 35/58/25
f 36/60/26 40/62/26 39/61/26
f 40/62/27 38/64/27 37/63/27
f 38/64/28 34/69/28 33/65/28
f 39/61/29 37/63/29 33/66/29
f 36/68/30 34/70/30 38/64/30
o 立方体.004
v -1.228878 -3.797464 3.836473
v -1.228878 -1.878012 3.274598
v -1.228878 -4.359339 1.917022
v -1.228878 -2.439887 1.355146
v 1.213066 -3.797464 3.836473
v 1.213066 -1.878012 3.274598
v 1.213066 -4.359339 1.917022
v 1.213066 -2.439887 1.355146
vt 0.625000 0.000000
vt 0.375000 0.250000
vt 0.375000 0.000000
vt 0.625000 0.250000
vt 0.375000 0.500000
vt 0.625000 0.500000
vt 0.375000 0.750000
vt 0.625000 0.750000
vt 0.375000 1.000000
vt 0.125000 0.750000
vt 0.125000 0.500000
vt 0.875000 0.500000
vt 0.625000 1.000000
vt 0.875000 0.750000
vn -1.0000 0.0000 0.0000
vn 0.0000 -0.2809 -0.9597
vn 1.0000 0.0000 0.0000
vn 0.0000 0.2809 0.9597
vn 0.0000 -0.9597 0.2809
vn 0.0000 0.9597 -0.2809
usemtl None
s off
f 42/71/31 43/72/31 41/73/31
f 44/74/32 47/75/32 43/72/32
f 48/76/33 45/77/33 47/75/33
f 46/78/34 41/79/34 45/77/34
f 47/75/35 41/80/35 43/81/35
f 44/82/36 46/78/36 48/76/36
f 42/71/31 44/74/31 43/72/31
f 44/74/32 48/76/32 47/75/32
f 48/76/33 46/78/33 45/77/33
f 46/78/34 42/83/34 41/79/34
f 47/75/35 45/77/35 41/80/35
f 44/82/36 42/84/36 46/78/36
o 立方体.006
v 2.261521 -5.328280 1.969766
v 1.344509 -4.903907 3.695743
v 2.217762 -3.392103 1.470461
v 1.300750 -2.967730 3.196438
v 4.038365 -5.061583 2.848229
v 3.121353 -4.637209 4.574206
v 3.994606 -3.125406 2.348924
v 3.077595 -2.701033 4.074902
vt 0.625000 0.000000
vt 0.375000 0.250000
vt 0.375000 0.000000
vt 0.625000 0.250000
vt 0.375000 0.500000
vt 0.625000 0.500000
vt 0.375000 0.750000
vt 0.625000 0.750000
vt 0.375000 1.000000
vt 0.125000 0.750000
vt 0.125000 0.500000
vt 0.875000 0.500000
vt 0.625000 1.000000
vt 0.875000 0.750000
vn -0.8884 -0.1333 -0.4392
vn -0.0219 0.9681 -0.2497
vn 0.8884 0.1333 0.4392
vn 0.0219 -0.9681 0.2497
vn 0.4585 -0.2122 -0.8630
vn -0.4585 0.2122 0.8630
usemtl None
s off
f 50/85/37 51/86/37 49/87/37
f 52/88/38 55/89/38 51/86/38
f 56/90/39 53/91/39 55/89/39
f 54/92/40 49/93/40 53/91/40
f 55/89/41 49/94/41 51/95/41
f 52/96/42 54/92/42 56/90/42
f 50/85/37 52/88/37 51/86/37
f 52/88/38 56/90/38 55/89/38
f 56/90/39 54/92/39 53/91/39
f 54/92/40 50/97/40 49/93/40
f 55/89/41 53/91/41 49/94/41
f 52/96/42 50/98/42 54/92/42
o 立方体.007
v 2.415167 -5.390546 1.598434
v 2.695946 -3.643846 0.665588
v 3.449575 -6.323332 0.163196
v 3.730355 -4.576632 -0.769650
v 4.103705 -5.109567 2.632788
v 4.384484 -3.362867 1.699942
v 5.138114 -6.042353 1.197550
v 5.418893 -4.295653 0.264704
vt 0.625000 0.000000
vt 0.375000 0.250000
vt 0.375000 0.000000
vt 0.625000 0.250000
vt 0.375000 0.500000
vt 0.625000 0.500000
vt 0.375000 0.750000
vt 0.625000 0.750000
vt 0.375000 1.000000
vt 0.125000 0.750000
vt 0.125000 0.500000
vt 0.875000 0.500000
vt 0.625000 1.000000
vt 0.875000 0.750000
vn -0.8443 -0.1405 -0.5172
vn 0.5172 -0.4664 -0.7176
vn 0.8443 0.1405 0.5172
vn -0.5172 0.4664 0.7176
vn -0.1404 -0.8734 0.4664
vn 0.1404 0.8734 -0.4664
vn 0.1404 0.8733 -0.4664
usemtl None
s off
f 58/99/43 59/100/43 57/101/43
f 60/102/44 63/103/44 59/100/44
f 64/104/45 61/105/45 63/103/45
f 62/106/46 57/107/46 61/105/46
f 63/103/47 57/108/47 59/109/47
f 60/110/48 62/106/48 64/104/48
f 58/99/43 60/102/43 59/100/43
f 60/102/44 64/104/44 63/103/44
f 64/104/45 62/106/45 61/105/45
f 62/106/46 58/111/46 57/107/46
f 63/103/47 61/105/47 57/108/47
f 60/110/49 58/112/49 62/106/49
o 立方体.009
v 1.925607 -8.382226 2.815791
v 1.940365 -6.382181 2.815791
v 1.925607 -8.382226 -0.236640
v 1.940365 -6.382181 -0.236640
v 5.293082 -8.407075 2.815791
v 5.307840 -6.407029 2.815791
v 5.293082 -8.407075 -0.236640
v 5.307840 -6.407029 -0.236640
vt 0.625000 0.000000
vt 0.375000 0.250000
vt 0.375000 0.000000
vt 0.625000 0.250000
vt 0.375000 0.500000
vt 0.625000 0.500000
vt 0.375000 0.750000
vt 0.625000 0.750000
vt 0.375000 1.000000
vt 0.125000 0.750000
vt 0.125000 0.500000
vt 0.875000 0.500000
vt 0.625000 1.000000
vt 0.875000 0.750000
vn -1.0000 0.0074 0.0000
vn -0.0000 0.0000 -1.0000
vn 1.0000 -0.0074 0.0000
vn 0.0000 0.0000 1.0000
vn -0.0074 -1.0000 0.0000
vn 0.0074 1.0000 0.0000
usemtl None
s off
f 66/113/50 67/114/50 65/115/50
f 68/116/51 71/117/51 67/114/51
f 72/118/52 69/119/52 71/117/52
f 70/120/53 65/121/53 69/119/53
f 71/117/54 65/122/54 67/123/54
f 68/124/55 70/120/55 72/118/55
f 66/113/50 68/116/50 67/114/50
f 68/116/51 72/118/51 71/117/51
f 72/118/52 70/120/52 69/119/52
f 70/120/53 66/125/53 65/121/53
f 71/117/54 69/119/54 65/122/54
f 68/124/55 66/126/55 70/120/55
o 立方体.005_立方体.023
v -1.965785 -8.382226 2.815791
v -1.980543 -6.382181 2.815791
v -1.965785 -8.382226 -0.236640
v -1.980543 -6.382181 -0.236640
v -5.333260 -8.407075 2.815791
v -5.348018 -6.407029 2.815791
v -5.333260 -8.407075 -0.236640
v -5.348018 -6.407029 -0.236640
vt 0.625000 0.000000
vt 0.375000 0.000000
vt 0.375000 0.250000
vt 0.625000 0.250000
vt 0.375000 0.500000
vt 0.625000 0.500000
vt 0.375000 0.750000
vt 0.625000 0.750000
vt 0.375000 1.000000
vt 0.125000 0.500000
vt 0.125000 0.750000
vt 0.875000 0.500000
vt 0.625000 1.000000
vt 0.875000 0.750000
vn 1.0000 0.0074 0.0000
vn 0.0000 0.0000 -1.0000
vn -1.0000 -0.0074 0.0000
vn -0.0000 0.0000 1.0000
vn 0.0074 -1.0000 0.0000
vn -0.0074 1.0000 0.0000
usemtl None
s off
f 74/127/56 73/128/56 75/129/56
f 76/130/57 75/129/57 79/131/57
f 80/132/58 79/131/58 77/133/58
f 78/134/59 77/133/59 73/135/59
f 79/131/60 75/136/60 73/137/60
f 76/138/61 80/132/61 78/134/61
f 74/127/56 75/129/56 76/130/56
f 76/130/57 79/131/57 80/132/57
f 80/132/58 77/133/58 78/134/58
f 78/134/59 73/135/59 74/139/59
f 79/131/60 73/137/60 77/133/60
f 76/138/61 78/134/61 74/140/61
o 立方体.008_立方体.024
v -2.455345 -5.390546 1.598434
v -2.736124 -3.643846 0.665588
v -3.489753 -6.323332 0.163196
v -3.770532 -4.576632 -0.769650
v -4.143883 -5.109567 2.632788
v -4.424663 -3.362867 1.699942
v -5.178291 -6.042353 1.197550
v -5.459071 -4.295653 0.264704
vt 0.625000 0.000000
vt 0.375000 0.000000
vt 0.375000 0.250000
vt 0.625000 0.250000
vt 0.375000 0.500000
vt 0.625000 0.500000
vt 0.375000 0.750000
vt 0.625000 0.750000
vt 0.375000 1.000000
vt 0.125000 0.500000
vt 0.125000 0.750000
vt 0.875000 0.500000
vt 0.625000 1.000000
vt 0.875000 0.750000
vn 0.8443 -0.1405 -0.5172
vn -0.5172 -0.4664 -0.7176
vn -0.8443 0.1405 0.5172
vn 0.5172 0.4664 0.7176
vn 0.1404 -0.8734 0.4664
vn -0.1404 0.8734 -0.4664
vn 0.1404 -0.8733 0.4664
vn -0.1404 0.8733 -0.4664
usemtl None
s off
f 82/141/62 81/142/62 83/143/62
f 84/144/63 83/143/63 87/145/63
f 88/146/64 87/145/64 85/147/64
f 86/148/65 85/147/65 81/149/65
f 87/145/66 83/150/66 81/151/66
f 84/152/67 88/146/67 86/148/67
f 82/141/62 83/143/62 84/144/62
f 84/144/63 87/145/63 88/146/63
f 88/146/64 85/147/64 86/148/64
f 86/148/65 81/149/65 82/153/65
f 87/145/68 81/151/68 85/147/68
f 84/152/69 86/148/69 82/154/69
o 立方体.010_立方体.025
v -2.301698 -5.328280 1.969766
v -1.384687 -4.903907 3.695743
v -2.257940 -3.392103 1.470461
v -1.340928 -2.967730 3.196438
v -4.078543 -5.061583 2.848229
v -3.161531 -4.637209 4.574206
v -4.034784 -3.125406 2.348924
v -3.117772 -2.701033 4.074902
vt 0.625000 0.000000
vt 0.375000 0.000000
vt 0.375000 0.250000
vt 0.625000 0.250000
vt 0.375000 0.500000
vt 0.625000 0.500000
vt 0.375000 0.750000
vt 0.625000 0.750000
vt 0.375000 1.000000
vt 0.125000 0.500000
vt 0.125000 0.750000
vt 0.875000 0.500000
vt 0.625000 1.000000
vt 0.875000 0.750000
vn 0.8884 -0.1333 -0.4392
vn 0.0219 0.9681 -0.2497
vn -0.8884 0.1333 0.4392
vn -0.0219 -0.9681 0.2497
vn -0.4585 -0.2122 -0.8630
vn 0.4585 0.2122 0.8630
usemtl None
s off
f 90/155/70 89/156/70 91/157/70
f 92/158/71 91/157/71 95/159/71
f 96/160/72 95/159/72 93/161/72
f 94/162/73 93/161/73 89/163/73
f 95/159/74 91/164/74 89/165/74
f 92/166/75 96/160/75 94/162/75
f 90/155/70 91/157/70 92/158/70
f 92/158/71 95/159/71 96/160/71
f 96/160/72 93/161/72 94/162/72
f 94/162/73 89/163/73 90/167/73
f 95/159/74 89/165/74 93/161/74
f 92/166/75 94/162/75 90/168/75
