# Blender v3.5.0 OBJ File: 'Boss.blend'
# www.blender.org
mtllib Boss_arm.mtl
o 立方体.011_立方体.017
v 5.011388 -1.793207 1.232396
v 3.894685 -0.134811 1.180468
v 5.072824 -1.814430 -0.766548
v 3.956121 -0.156034 -0.818475
v 6.669459 -0.675499 1.271489
v 5.552756 0.982897 1.219561
v 6.730895 -0.696721 -0.727455
v 5.614192 0.961675 -0.779382
vt 0.625000 0.000000
vt 0.375000 0.250000
vt 0.375000 0.000000
vt 0.625000 0.250000
vt 0.375000 0.500000
vt 0.625000 0.500000
vt 0.375000 0.750000
vt 0.625000 0.750000
vt 0.375000 1.000000
vt 0.125000 0.750000
vt 0.125000 0.500000
vt 0.875000 0.500000
vt 0.625000 1.000000
vt 0.875000 0.750000
vn -0.8290 -0.5589 -0.0195
vn 0.0307 -0.0106 -0.9995
vn 0.8290 0.5589 0.0195
vn -0.0307 0.0106 0.9995
vn 0.5584 -0.8292 0.0260
vn -0.5584 0.8292 -0.0260
usemtl None
s off
f 2/1/1 3/2/1 1/3/1
f 4/4/2 7/5/2 3/2/2
f 8/6/3 5/7/3 7/5/3
f 6/8/4 1/9/4 5/7/4
f 7/5/5 1/10/5 3/11/5
f 4/12/6 6/8/6 8/6/6
f 2/1/1 4/4/1 3/2/1
f 4/4/2 8/6/2 7/5/2
f 8/6/3 6/8/3 5/7/3
f 6/8/4 2/13/4 1/9/4
f 7/5/5 5/7/5 1/10/5
f 4/12/6 2/14/6 6/8/6
o 立方体.012_立方体.005
v 6.401083 -4.350478 0.203563
v 5.593842 -2.756092 1.101501
v 6.340349 -3.392932 -1.551264
v 5.533107 -1.798546 -0.653326
v 8.229928 -3.614925 0.541632
v 7.422686 -2.020539 1.439570
v 8.169193 -2.657379 -1.213195
v 7.361951 -1.062993 -0.315257
vt 0.625000 0.000000
vt 0.375000 0.250000
vt 0.375000 0.000000
vt 0.625000 0.250000
vt 0.375000 0.500000
vt 0.625000 0.500000
vt 0.375000 0.750000
vt 0.625000 0.750000
vt 0.375000 1.000000
vt 0.125000 0.750000
vt 0.125000 0.500000
vt 0.875000 0.500000
vt 0.625000 1.000000
vt 0.875000 0.750000
vn -0.9144 -0.3678 -0.1690
vn -0.0304 0.4788 -0.8774
vn 0.9144 0.3678 0.1690
vn 0.0304 -0.4788 0.8774
vn 0.4036 -0.7972 -0.4490
vn -0.4036 0.7972 0.4490
usemtl None
s off
f 10/15/7 11/16/7 9/17/7
f 12/18/8 15/19/8 11/16/8
f 16/20/9 13/21/9 15/19/9
f 14/22/10 9/23/10 13/21/10
f 15/19/11 9/24/11 11/25/11
f 12/26/12 14/22/12 16/20/12
f 10/15/7 12/18/7 11/16/7
f 12/18/8 16/20/8 15/19/8
f 16/20/9 14/22/9 13/21/9
f 14/22/10 10/27/10 9/23/10
f 15/19/11 13/21/11 9/24/11
f 12/26/12 10/28/12 14/22/12
o 立方体.013_立方体.008
v 7.243106 -6.467641 -1.235348
v 6.814749 -4.802937 -0.212964
v 7.183236 -5.432646 -2.945670
v 6.754879 -3.767942 -1.923286
v 9.195778 -6.070722 -1.063507
v 8.767421 -4.406017 -0.041123
v 9.135907 -5.035727 -2.773829
v 8.707550 -3.371022 -1.751445
vt 0.625000 0.000000
vt 0.375000 0.250000
vt 0.375000 0.000000
vt 0.625000 0.250000
vt 0.375000 0.500000
vt 0.625000 0.500000
vt 0.375000 0.750000
vt 0.625000 0.750000
vt 0.375000 1.000000
vt 0.125000 0.750000
vt 0.125000 0.500000
vt 0.875000 0.500000
vt 0.625000 1.000000
vt 0.875000 0.750000
vn -0.9763 -0.1985 -0.0859
vn -0.0299 0.5175 -0.8552
vn 0.9763 0.1985 0.0859
vn 0.0299 -0.5175 0.8552
vn 0.2142 -0.8324 -0.5112
vn -0.2142 0.8324 0.5112
usemtl None
s off
f 18/29/13 19/30/13 17/31/13
f 20/32/14 23/33/14 19/30/14
f 24/34/15 21/35/15 23/33/15
f 22/36/16 17/37/16 21/35/16
f 23/33/17 17/38/17 19/39/17
f 20/40/18 22/36/18 24/34/18
f 18/29/13 20/32/13 19/30/13
f 20/32/14 24/34/14 23/33/14
f 24/34/15 22/36/15 21/35/15
f 22/36/16 18/41/16 17/37/16
f 23/33/17 21/35/17 17/38/17
f 20/40/18 18/42/18 22/36/18
o 立方体.014_立方体.010
v 7.505689 -8.474501 -2.435564
v 7.454217 -6.620595 -1.686975
v 7.632861 -7.724144 -4.285102
v 7.581389 -5.870239 -3.536514
v 9.500978 -8.474501 -2.298370
v 9.449506 -6.620595 -1.549781
v 9.628150 -7.724144 -4.147908
v 9.576678 -5.870239 -3.399320
vt 0.625000 0.000000
vt 0.375000 0.250000
vt 0.375000 0.000000
vt 0.625000 0.250000
vt 0.375000 0.500000
vt 0.625000 0.500000
vt 0.375000 0.750000
vt 0.625000 0.750000
vt 0.375000 1.000000
vt 0.125000 0.750000
vt 0.125000 0.500000
vt 0.875000 0.500000
vt 0.625000 1.000000
vt 0.875000 0.750000
vn -0.9976 0.0000 -0.0686
vn 0.0636 0.3752 -0.9248
vn 0.9976 0.0000 0.0686
vn -0.0636 -0.3752 0.9248
vn 0.0257 -0.9270 -0.3743
vn -0.0257 0.9270 0.3743
usemtl None
s off
f 26/43/19 27/44/19 25/45/19
f 28/46/20 31/47/20 27/44/20
f 32/48/21 29/49/21 31/47/21
f 30/50/22 25/51/22 29/49/22
f 31/47/23 25/52/23 27/53/23
f 28/54/24 30/50/24 32/48/24
f 26/43/19 28/46/19 27/44/19
f 28/46/20 32/48/20 31/47/20
f 32/48/21 30/50/21 29/49/21
f 30/50/22 26/55/22 25/51/22
f 31/47/23 29/49/23 25/52/23
f 28/54/24 26/56/24 30/50/24
o 立方体.015_立方体.026
v -7.555346 -8.474501 -2.435564
v -7.503875 -6.620595 -1.686975
v -7.682519 -7.724144 -4.285102
v -7.631047 -5.870239 -3.536514
v -9.550635 -8.474501 -2.298370
v -9.499164 -6.620595 -1.549781
v -9.677808 -7.724144 -4.147908
v -9.626336 -5.870239 -3.399320
vt 0.625000 0.000000
vt 0.375000 0.000000
vt 0.375000 0.250000
vt 0.625000 0.250000
vt 0.375000 0.500000
vt 0.625000 0.500000
vt 0.375000 0.750000
vt 0.625000 0.750000
vt 0.375000 1.000000
vt 0.125000 0.500000
vt 0.125000 0.750000
vt 0.875000 0.500000
vt 0.625000 1.000000
vt 0.875000 0.750000
vn 0.9976 0.0000 -0.0686
vn -0.0636 0.3752 -0.9248
vn -0.9976 0.0000 0.0686
vn 0.0636 -0.3752 0.9248
vn -0.0257 -0.9270 -0.3743
vn 0.0257 0.9270 0.3743
usemtl None
s off
f 34/57/25 33/58/25 35/59/25
f 36/60/26 35/59/26 39/61/26
f 40/62/27 39/61/27 37/63/27
f 38/64/28 37/63/28 33/65/28
f 39/61/29 35/66/29 33/67/29
f 36/68/30 40/62/30 38/64/30
f 34/57/25 35/59/25 36/60/25
f 36/60/26 39/61/26 40/62/26
f 40/62/27 37/63/27 38/64/27
f 38/64/28 33/65/28 34/69/28
f 39/61/29 33/67/29 37/63/29
f 36/68/30 38/64/30 34/70/30
o 立方体.016_立方体.027
v -7.292763 -6.467641 -1.235348
v -6.864407 -4.802937 -0.212964
v -7.232893 -5.432646 -2.945670
v -6.804536 -3.767942 -1.923286
v -9.245435 -6.070722 -1.063507
v -8.817078 -4.406017 -0.041123
v -9.185564 -5.035727 -2.773829
v -8.757207 -3.371022 -1.751445
vt 0.625000 0.000000
vt 0.375000 0.000000
vt 0.375000 0.250000
vt 0.625000 0.250000
vt 0.375000 0.500000
vt 0.625000 0.500000
vt 0.375000 0.750000
vt 0.625000 0.750000
vt 0.375000 1.000000
vt 0.125000 0.500000
vt 0.125000 0.750000
vt 0.875000 0.500000
vt 0.625000 1.000000
vt 0.875000 0.750000
vn 0.9763 -0.1985 -0.0859
vn 0.0299 0.5175 -0.8552
vn -0.9763 0.1985 0.0859
vn -0.0299 -0.5175 0.8552
vn -0.2142 -0.8324 -0.5112
vn 0.2142 0.8324 0.5112
usemtl None
s off
f 42/71/31 41/72/31 43/73/31
f 44/74/32 43/73/32 47/75/32
f 48/76/33 47/75/33 45/77/33
f 46/78/34 45/77/34 41/79/34
f 47/75/35 43/80/35 41/81/35
f 44/82/36 48/76/36 46/78/36
f 42/71/31 43/73/31 44/74/31
f 44/74/32 47/75/32 48/76/32
f 48/76/33 45/77/33 46/78/33
f 46/78/34 41/79/34 42/83/34
f 47/75/35 41/81/35 45/77/35
f 44/82/36 46/78/36 42/84/36
o 立方体.017_立方体.028
v -6.450741 -4.350478 0.203563
v -5.643498 -2.756092 1.101501
v -6.390007 -3.392932 -1.551264
v -5.582765 -1.798546 -0.653326
v -8.279585 -3.614925 0.541632
v -7.472343 -2.020539 1.439570
v -8.218851 -2.657379 -1.213195
v -7.411609 -1.062993 -0.315257
vt 0.625000 0.000000
vt 0.375000 0.000000
vt 0.375000 0.250000
vt 0.625000 0.250000
vt 0.375000 0.500000
vt 0.625000 0.500000
vt 0.375000 0.750000
vt 0.625000 0.750000
vt 0.375000 1.000000
vt 0.125000 0.500000
vt 0.125000 0.750000
vt 0.875000 0.500000
vt 0.625000 1.000000
vt 0.875000 0.750000
vn 0.9144 -0.3678 -0.1690
vn 0.0304 0.4788 -0.8774
vn -0.9144 0.3678 0.1690
vn -0.0304 -0.4788 0.8774
vn -0.4036 -0.7972 -0.4490
vn 0.4036 0.7972 0.4490
usemtl None
s off
f 50/85/37 49/86/37 51/87/37
f 52/88/38 51/87/38 55/89/38
f 56/90/39 55/89/39 53/91/39
f 54/92/40 53/91/40 49/93/40
f 55/89/41 51/94/41 49/95/41
f 52/96/42 56/90/42 54/92/42
f 50/85/37 51/87/37 52/88/37
f 52/88/38 55/89/38 56/90/38
f 56/90/39 53/91/39 54/92/39
f 54/92/40 49/93/40 50/97/40
f 55/89/41 49/95/41 53/91/41
f 52/96/42 54/92/42 50/98/42
o 立方体.018_立方体.029
v -5.061045 -1.793207 1.232396
v -3.944342 -0.134811 1.180468
v -5.122481 -1.814430 -0.766548
v -4.005778 -0.156033 -0.818475
v -6.719116 -0.675499 1.271489
v -5.602414 0.982897 1.219561
v -6.780552 -0.696721 -0.727455
v -5.663849 0.961675 -0.779382
vt 0.625000 0.000000
vt 0.375000 0.000000
vt 0.375000 0.250000
vt 0.625000 0.250000
vt 0.375000 0.500000
vt 0.625000 0.500000
vt 0.375000 0.750000
vt 0.625000 0.750000
vt 0.375000 1.000000
vt 0.125000 0.500000
vt 0.125000 0.750000
vt 0.875000 0.500000
vt 0.625000 1.000000
vt 0.875000 0.750000
vn 0.8290 -0.5589 -0.0195
vn -0.0307 -0.0106 -0.9995
vn -0.8290 0.5589 0.0195
vn 0.0307 0.0106 0.9995
vn -0.5584 -0.8292 0.0260
vn 0.5584 0.8292 -0.0260
usemtl None
s off
f 58/99/43 57/100/43 59/101/43
f 60/102/44 59/101/44 63/103/44
f 64/104/45 63/103/45 61/105/45
f 62/106/46 61/105/46 57/107/46
f 63/103/47 59/108/47 57/109/47
f 60/110/48 64/104/48 62/106/48
f 58/99/43 59/101/43 60/102/43
f 60/102/44 63/103/44 64/104/44
f 64/104/45 61/105/45 62/106/45
f 62/106/46 57/107/46 58/111/46
f 63/103/47 57/109/47 61/105/47
f 60/110/48 62/106/48 58/112/48
